<?xml version="1.0" encoding="UTF-8" standalone="no"?>
<!-- Created with Inkscape (http://www.inkscape.org/) -->

<svg
   version="1.1"
   id="svg1"
   width="1024"
   height="1024"
   viewBox="0 0 1024 1024"
   xmlns="http://www.w3.org/2000/svg"
   xmlns:svg="http://www.w3.org/2000/svg">
  <defs
     id="defs1" />
  <g
     id="g1">
    <g
       id="g60"
       style="display:inline"
       transform="translate(-117,-125)">
      <path
         id="path23"
         style="fill:#533268;fill-opacity:1;stroke-width:1.73349"
         d="m 758.69805,823.05766 1.22851,12.10546 c 0.69981,-0.42331 4.81936,-2.16418 9.55664,-4.03125 15.92138,-6.27494 18.72848,-5.09018 26.97852,11.37696 4.43185,8.846 9.06172,30.52614 7.17187,33.58398 -0.54087,0.87516 -6.99865,3.46267 -14.34961,5.74805 -17.8584,5.5521 -22.17302,6.49886 -23.50781,5.16406 -0.61825,-0.61826 -1.125,-5.57107 -1.125,-11.00781 0,-5.43674 -1.19251,-16.72582 -2.65039,-25.08594 -0.47479,-2.72264 -0.89796,-5.30577 -1.24414,-7.5625 l 5.56055,54.81836 11.5625,-2.90039 c 38.7098,-9.70869 81.76568,-33.04273 111.79492,-60.58594 29.98614,-27.50367 50.13103,-65.8541 55.41211,-105.49023 3.47999,-26.11835 0.38948,-52.06927 -13.16797,-110.55664 -10.26455,-44.2817 -11.82827,-55.54386 -10.82617,-78.00586 0.90046,-20.18344 3.21933,-28.29828 10.99609,-38.49414 9.7467,-12.77859 23.55223,-15.34944 48.09375,-8.95703 19.95278,5.19717 31.42118,4.9596 43.39068,-0.89649 19.9,-9.73618 29.697,-27.2358 28.5566,-51.01172 -0.7929,-16.53307 -5.606,-27.17237 -17.834,-39.42187 -16.7293,-16.75874 -38.34706,-23.89069 -72.02539,-23.76172 -40.12429,0.15363 -65.93971,10.77057 -93.67187,38.52344 -13.40243,13.41245 -17.92175,19.33092 -23.88086,31.27734 -9.18223,18.4079 -13.51822,33.60485 -16.00781,56.10547 -3.33787,30.16744 0.50113,61.94391 14.6875,121.57812 15.63349,65.71727 14.98878,98.53587 -2.63086,133.78907 -12.17958,24.36877 -32.79847,43.59979 -61.21289,57.09375 -7.36589,3.49805 -15.94879,6.44362 -19.07422,6.54687 z M 956.94414,387.41898 c 3.23659,-0.10322 7.88323,-0.024 13.33008,0.25782 33.67748,1.74243 56.96988,13.61635 67.50978,34.41601 11.8041,23.29415 3.9903,51.11453 -17.166,61.12305 -11.4734,5.42778 -21.56577,5.68154 -36.84964,0.92578 l -10.57227,-3.28906 -1.04492,-22.11719 c -1.22172,-25.84823 -4.05046,-38.06647 -12.9414,-55.91992 -3.561,-7.15066 -6.77193,-13.70253 -7.13672,-14.5586 -0.19152,-0.4494 1.6345,-0.73467 4.87109,-0.83789 z m -55.23828,15.41211 c 6.77732,-0.0417 23.29193,24.70426 29.96875,44.90625 2.55837,7.74085 5.13146,18.65554 5.7168,24.25586 l 1.06445,10.1836 -9.72461,9.72265 c -5.34803,5.34803 -9.93622,9.64573 -10.19531,9.54883 -0.25909,-0.0969 -5.60193,-5.36246 -11.875,-11.70117 -12.85284,-12.98734 -28.26851,-22.73588 -44.48633,-28.13281 -9.821,-3.26819 -10.85462,-4.0473 -9.80859,-7.39063 1.37328,-4.38932 9.25825,-16.29153 17.72461,-26.7539 6.8581,-8.47499 27.5661,-24.61378 31.61523,-24.63868 z m -64.24805,102.25977 h 6.61914 c 15.2375,0 42.66972,12.11266 57.375,25.33398 l 8.27344,7.43946 1.18164,18.71679 c 0.64929,10.29422 1.64156,20.86051 2.20508,23.48242 1.23481,5.74537 1.40702,5.75188 -15.52539,-0.58593 -10.37524,-3.88347 -18.19987,-5.40652 -33.43164,-6.50781 -10.93744,-0.79079 -20.59336,-2.14992 -21.45703,-3.02149 -2.35798,-2.3796 -5.24024,-28.72788 -5.24024,-47.91016 z m 32.23828,107.97265 c 13.30153,-0.18382 29.96238,3.47008 43.17774,9.6543 l 10.88476,5.09375 4.6211,19.67969 c 2.54146,10.82425 5.07908,24.55673 5.63867,30.51562 0.56292,5.99434 0.32481,10.7971 -0.5332,10.75 -0.85292,-0.0467 -4.28216,-2.08025 -7.61914,-4.51757 -13.74891,-10.0422 -30.67899,-15.85902 -54.82813,-18.83789 l -8.89258,-1.09766 -5.17383,-23.70117 c -2.84557,-13.03587 -4.88259,-24.22499 -4.52539,-24.86524 0.35718,-0.64028 5.65536,-1.70028 11.77344,-2.35547 1.74322,-0.18668 3.57635,-0.29209 5.47656,-0.31836 z m -27.14453,165.22657 c 1.0901,-0.0102 2.5109,0.6688 4.99024,1.88476 11.03729,5.41309 22.52754,17.60155 29.0664,30.83203 4.14475,8.38635 5.88444,13.89582 5.13477,16.25782 -1.21986,3.84345 -17.2691,17.24382 -31.18945,26.04101 -4.71541,2.98001 -9.11651,5.41797 -9.78125,5.41797 -1.65807,0 -3.31446,-4.67926 -3.31446,-9.36719 0,-7.61595 -5.80566,-20.72 -13.94726,-31.47656 l -8.26953,-10.92383 9.91406,-10.08593 c 5.45245,-5.54725 11.42631,-12.20804 13.27539,-14.80079 1.86402,-2.61367 2.71954,-3.76616 4.12109,-3.77929 z" />
      <path
         style="fill:#f9a93d;fill-opacity:1;stroke-width:0.866747"
         d="m 766.75953,885.49738 c -0.32705,-0.52918 -0.92803,-7.25731 -1.3355,-14.95138 -0.40749,-7.69409 -1.57425,-18.39788 -2.59281,-23.78621 -2.18493,-11.5586 -2.76723,-10.56414 8.67202,-14.80991 10.93399,-4.05823 13.32668,-4.28151 15.8191,-1.47622 3.47296,3.90887 10.23927,16.29064 11.98983,21.94032 2.07888,6.70933 3.88947,19.28026 3.18257,22.09675 -0.59497,2.37053 -0.30929,2.25699 -20.34526,8.08702 -14.71515,4.2818 -14.55443,4.25152 -15.38995,2.89963 z"
         id="path37" />
      <path
         style="fill:#f9a93d;fill-opacity:1;stroke-width:0.866747"
         d="m 839.71797,855.61911 c -0.28934,-0.75404 -0.52609,-2.80958 -0.52609,-4.56784 0,-9.4635 -7.90615,-27.1355 -16.79682,-37.54464 l -5.42494,-6.35147 6.86479,-6.4579 c 3.77562,-3.55185 9.39295,-9.69559 12.48293,-13.65275 3.08999,-3.95718 5.9952,-7.19486 6.45601,-7.19486 3.17255,0 16.23213,9.45621 22.58163,16.35096 7.06347,7.67001 15.44025,23.69242 15.44025,29.5328 0,2.05692 -4.85129,6.91778 -14.30133,14.32953 -7.71179,6.04842 -24.02136,16.92719 -25.37746,16.92719 -0.48007,0 -1.10961,-0.61696 -1.39897,-1.37102 z"
         id="path38" />
      <path
         style="fill:#f9a93d;fill-opacity:1;stroke-width:0.866747"
         d="m 906.43582,782.08856 c -9.59638,-14.8756 -24.67778,-28.13454 -38.53483,-33.8782 -4.34896,-1.80262 -7.90445,-3.51446 -7.90111,-3.8041 0.004,-0.28963 0.74282,-3.64691 1.64328,-7.4606 1.70915,-7.23866 3.07223,-15.44909 4.02907,-24.26892 0.8426,-7.76692 1.45533,-8.52608 6.31632,-7.82584 13.34383,1.92219 29.10385,8.11725 39.448,15.50647 2.93105,2.09375 8.54698,7.16106 12.47984,11.26066 8.65885,9.02598 8.6797,9.16796 3.59261,24.46561 -3.79552,11.41371 -13.9584,33.30023 -15.46277,33.30023 -0.49728,0 -3.02196,-3.2829 -5.61041,-7.29531 z"
         id="path45" />
      <path
         style="fill:#f9a93d;fill-opacity:1;stroke-width:0.866747"
         d="m 928.90019,684.32856 c -6.55352,-5.01181 -25.87942,-14.3581 -33.80314,-16.34769 -3.81369,-0.95759 -12.50764,-2.40328 -19.3199,-3.21261 -11.09932,-1.31867 -12.42318,-1.65289 -12.74442,-3.21731 -0.19714,-0.96017 -2.298,-10.52158 -4.66856,-21.24757 -2.37056,-10.72599 -4.43631,-20.67192 -4.59055,-22.10205 l -0.28042,-2.60025 6.50059,-0.70975 c 18.41882,-2.01103 42.5249,2.78809 57.7096,11.489 4.21125,2.41307 4.48725,2.80269 6.28583,8.87353 4.16106,14.04502 10.26444,46.59057 9.52539,50.79293 -0.24335,1.38373 -0.85704,1.15523 -4.61442,-1.71823 z"
         id="path46" />
      <path
         style="fill:#f9a93d;fill-opacity:1;stroke-width:0.866747"
         d="m 902.89778,579.6763 c -13.19797,-5.51865 -22.12248,-7.19778 -45.59702,-8.57903 -6.96334,-0.40973 -13.05897,-0.99115 -13.54583,-1.29204 -2.03848,-1.25985 -5.40558,-32.60505 -5.42086,-50.46409 -0.0119,-13.42409 0.25911,-13.86188 8.07304,-13.06132 17.82894,1.82664 39.74307,12.43206 56.90698,27.54036 l 5.0198,4.41862 0.59935,11.81198 c 0.32964,6.49659 1.15106,16.10239 1.82538,21.3462 1.42419,11.07538 1.45732,11.72783 0.58994,11.62111 -0.35753,-0.044 -4.16039,-1.54779 -8.45078,-3.34179 z"
         id="path47" />
      <path
         style="fill:#f9a93d;fill-opacity:1;stroke-width:0.866747"
         d="m 912.86537,493.27585 c -16.94129,-17.61607 -31.04324,-26.77549 -51.77911,-33.63126 -3.92791,-1.29865 -7.35548,-2.70717 -7.61683,-3.13004 -1.78219,-2.88364 14.33528,-25.21366 26.56044,-36.79829 6.31179,-5.98109 20.19557,-16.04574 22.12449,-16.03853 1.52057,0.005 10.01101,9.54807 14.39227,16.17544 11.20523,16.94969 19.72091,41.46349 19.72091,56.76989 0,5.80182 -0.13149,6.19741 -2.78965,8.39412 -4.22384,3.49055 -9.55757,8.89888 -11.96143,12.12876 l -2.15049,2.88944 z"
         id="path48" />
      <path
         style="fill:#f9a93d;fill-opacity:1;stroke-width:0.866747"
         d="m 996.50646,485.98285 c -1.90685,-0.39399 -7.75739,-2.03869 -13.00121,-3.65488 l -9.53422,-2.93851 -0.51771,-18.5689 c -0.32114,-11.51873 -1.08223,-21.69515 -2.00454,-26.80298 -2.18733,-12.1134 -6.96611,-25.6139 -12.74494,-36.00555 -2.80575,-5.04539 -5.10137,-9.40288 -5.10137,-9.68331 0,-0.28042 5.94806,-0.2693 13.2179,0.0248 27.69225,1.12 45.82623,7.79754 60.45633,22.26197 10.1829,10.06767 14.6924,20.56597 14.7212,34.2711 0.034,16.10877 -8.0012,29.91019 -21.3295,36.63687 -9.7117,4.90136 -16.2146,6.10158 -24.16194,4.45947 z"
         id="path49" />
    </g>
    <g
       id="g61"
       style="display:inline">
      <path
         style="display:inline;fill:#000000;stroke-width:1.32551"
         d="m 511.20982,1019.9279 c -16.41773,-2.1702 -25.29747,-6.2407 -29.83231,-13.6754 -6.24723,-10.24197 -4.54384,-19.79594 5.48606,-30.77025 l 6.74001,-7.37464 -4.3414,-10.92335 c -5.21611,-13.12421 -14.67704,-32.54176 -24.85883,-51.02013 l -7.48633,-13.58652 h -10.91101 -10.91104 l -1.29635,4.97068 c -0.71299,2.73387 -2.2275,8.63686 -3.36557,13.11776 -1.13807,4.4809 -3.87084,22.37533 -6.07285,39.7654 -5.9793,47.22101 -7.73277,51.38725 -23.61454,56.10845 -24.79402,7.3706 -67.25698,8.6087 -88.33298,2.5755 -6.88087,-1.9697 -14.79405,-9.90801 -15.93403,-15.98457 -1.37886,-7.34995 1.47817,-15.29075 8.01636,-22.2806 3.21402,-3.43605 7.94392,-7.37841 10.51089,-8.76082 2.56697,-1.3824 4.66722,-2.91853 4.66722,-3.41359 0,-0.49508 -3.95006,-10.94698 -8.7779,-23.22645 -10.86147,-27.62582 -25.75963,-72.04987 -30.38057,-90.59024 -2.69882,-10.82839 -5.08342,-16.63729 -10.74236,-26.16849 -11.43066,-19.25235 -17.63835,-37.14583 -19.66239,-56.67611 -0.45332,-4.37419 -1.13782,-10.15054 -1.5211,-12.83633 l -0.69689,-4.88325 -11.49651,8.51155 c -32.51147,24.0702 -59.52213,29.41 -75.28236,14.88273 -17.87989,-16.4811 -11.08251,-47.94327 21.60959,-100.02142 16.4809,-26.2539 62.57633,-85.24164 87.0437,-111.38869 5.80772,-6.20643 8.97272,-10.97301 11.00224,-16.56974 1.98641,-5.47791 2.38778,-8.01973 1.32551,-8.39458 -0.83799,-0.2957 -8.67673,-2.68572 -17.41943,-5.31114 -20.17392,-6.05821 -33.73826,-11.66669 -57.00742,-23.57106 -21.51815,-11.00855 -66.3981,-40.46606 -87.4839,-57.42113 -12.47831,-10.0338 -14.64005,-12.33899 -14.99268,-15.98756 -0.37688,-3.89962 0.15856,-4.57802 6.2771,-7.95308 3.67902,-2.02939 6.69772,-4.11883 6.70821,-4.64321 0.0106,-0.52437 -3.41066,-3.14439 -7.6026,-5.82226 -9.23855,-5.90172 -21.19696,-15.95489 -23.011376,-19.34516 -2.187721,-4.08777 -0.298148,-6.88003 10.214009,-15.09342 12.315077,-9.62203 21.706517,-20.78084 27.824177,-33.06036 3.61708,-7.26032 5.82877,-15.1709 9.991,-35.73516 6.53901,-32.30712 13.26211,-53.2606 23.92072,-74.55222 l 8.12064,-16.22176 -2.1823,-13.60229 c -3.82017,-23.81118 -4.8167,-36.82153 -4.82786,-63.0299 -0.0119,-29.01564 1.40133,-44.532124 6.09267,-66.873428 5.05454,-24.07103 13.58354,-47.014887 19.78067,-53.21202 3.04583,-3.045845 9.87256,-2.655958 21.60056,1.233629 31.73652,10.525399 71.01644,36.361456 104.93804,69.022161 l 13.92913,13.411378 11.92962,-2.43469 c 21.52043,-4.392067 37.1159,-5.546576 64.90207,-4.804633 22.70613,0.606303 43.18124,2.811653 52.49211,5.653863 1.37625,0.4201 5.36949,-3.20499 11.8637,-10.769974 10.81914,-12.603022 31.05603,-30.975766 48.95032,-44.441176 27.9051,-20.998533 66.32679,-39.5273166 88.99707,-42.9186429 5.69263,-0.8515762 6.30345,-0.6427813 9.60788,3.2843043 7.10094,8.4389876 16.54397,31.9283856 21.32246,53.0392786 5.14118,22.713204 6.67147,38.914068 6.69847,70.91497 0.0345,40.82796 -3.82816,68.62813 -13.55437,97.55375 l -3.83167,11.39537 4.37945,11.37153 c 7.10759,18.45526 10.8947,33.16289 15.77784,61.2747 2.53271,14.58065 5.46942,29.52058 6.52601,33.19984 2.99549,10.43092 11.67883,22.59244 26.67294,37.357 7.57382,7.45786 13.75162,14.31739 13.72843,15.24341 -0.0598,2.38594 -2.24282,4.82758 -10.56195,11.81292 -6.08811,5.11203 -20.26237,14.81108 -29.77776,20.37611 -1.99128,1.1646 -1.21845,2.21014 5.78669,7.82878 10.33631,8.29046 10.85052,12.01079 2.45147,17.73684 -21.56958,14.70503 -64.87915,36.30009 -104.05281,51.88286 -6.01452,2.3925 -10.93548,4.80797 -10.93548,5.36771 0,1.15399 61.99035,123.22632 63.61462,125.27085 1.86739,2.35055 27.40007,48.61924 26.61513,54.01467 -4.76288,32.73834 -6.57783,10.24241 11.4036,81.41743 l -3.013,13.43473 c -1.65716,7.3891 -5.10802,20.16176 -7.66859,28.38368 -12.46412,40.02209 -21.55827,81.04393 -28.69116,129.41996 -4.73992,32.14657 -6.67429,41.07643 -10.98622,50.71664 -5.81065,12.99091 -13.20519,18.06631 -31.74012,21.78551 -11.47913,2.3034 -43.53436,3.4842 -54.66037,2.0135 z m 46.13907,-12.1789 c 20.39171,-3.1529 28.26971,-8.46699 32.10376,-21.65563 2.19382,-7.54649 5.77562,-28.27541 5.01687,-29.03416 -0.25167,-0.25168 -3.5383,0.34154 -7.30362,1.31825 -15.71201,4.07565 -37.16416,6.07789 -57.39889,5.35734 -10.93549,-0.3894 -21.2043,-1.11477 -22.81955,-1.61193 -2.82364,-0.86908 -2.90685,-0.65055 -2.15848,5.66822 0.77764,6.56596 0.77278,6.57616 -5.13722,10.8204 -6.16967,4.43072 -10.31292,11.15543 -10.31292,16.7384 0,5.80781 6.2189,10.15631 17.89444,12.51251 8.03856,1.6222 39.34822,1.5513 50.11561,-0.1135 z m -169.41183,-9.60672 c 13.13124,-2.72013 16.10143,-4.37665 18.47245,-10.30244 2.90865,-7.26943 7.00682,-36.94316 5.10107,-36.9354 -0.57188,0.003 -6.40812,0.99395 -12.96941,2.20358 -12.81628,2.36282 -47.32624,3.18424 -60.51722,1.44047 l -7.49668,-0.99102 1.38708,4.51951 c 1.95704,6.3766 0.85708,8.10127 -8.02709,12.58598 -7.89763,3.98671 -13.89597,9.70659 -15.5091,14.78912 -2.24388,7.06981 2.65267,12.01525 14.37863,14.52216 8.11039,1.73396 54.22256,0.43796 65.18027,-1.83196 z m 183.58362,-67.67673 c 6.19678,-1.15291 15.14142,-3.19428 19.87699,-4.53637 l 8.61014,-2.44018 2.1814,-11.81052 c 1.19977,-6.4958 2.09473,-11.91229 1.9888,-12.03663 -0.10591,-0.12434 -6.15508,1.30013 -13.44255,3.16552 -18.56573,4.7523 -44.60187,5.12499 -54.02516,0.77335 -7.68312,-3.54806 -8.9263,-6.11313 -4.9923,-10.30066 3.80559,-4.05087 11.53711,-7.32494 31.19266,-13.20914 14.51909,-4.34653 43.96004,-15.24624 48.0972,-17.8067 0.94052,-0.58207 3.20485,-6.97315 5.03185,-14.20239 1.82699,-7.22923 5.64325,-20.60007 8.48058,-29.71297 2.83733,-9.11291 6.38751,-21.34077 7.8893,-27.17303 -0.92119,-7.2003 15.25257,-53.19597 -0.68602,-40.94438 -27.7611,22.06175 -47.13929,32.51324 -72.13251,38.90418 -14.14986,3.61823 -24.88508,4.56827 -31.4982,2.78754 -11.67499,-3.14375 -6.19964,-8.95589 26.09272,-27.69764 34.11107,-19.79731 55.36639,-36.34751 68.34856,-53.21882 l 6.025,-7.82996 -6.12758,-13.99167 c -3.37018,-7.69542 -6.60934,-13.99168 -7.19813,-13.99168 -0.5888,0 -3.15272,2.83329 -5.69763,6.29619 -9.36597,12.74447 -27.37409,28.18202 -43.31717,37.13385 -15.04119,8.44543 -36.49912,13.3627 -42.29658,9.69263 -3.88422,-2.45889 1.4459,-9.42904 20.2956,-26.54033 24.81172,-22.52347 34.89461,-33.19469 42.78476,-45.2812 11.64606,-17.83997 12.34666,-13.08775 -7.61465,-51.6509 -9.59506,-18.53668 -23.11084,-45.03619 -30.03506,-58.88781 -6.92423,-13.85161 -13.13516,-25.86086 -13.80207,-26.6872 -0.88541,-1.09707 -3.97504,-0.64044 -11.45117,1.69243 -5.63124,1.75718 -17.02746,5.02244 -25.32493,7.25614 -15.0857,4.0611 -15.08644,4.06115 -17.73703,1.41057 -1.85906,-1.85907 -2.40577,-3.62651 -1.83062,-5.91815 0.71418,-2.84548 2.32004,-3.64328 12.43496,-6.17775 41.81037,-10.47629 107.71941,-37.95449 148.24436,-61.80469 l 12.92108,-7.60446 -8.16821,-7.21247 c -12.41972,-10.96649 -12.09879,-11.83743 8.93175,-24.23895 6.12433,-3.61146 14.348,-9.04499 18.27482,-12.07452 l 7.13967,-5.50821 -11.80822,-12.06199 c -12.89539,-13.17253 -21.46241,-25.34736 -24.63591,-35.01079 -1.12212,-3.41687 -4.11388,-18.14212 -6.64837,-32.72276 -6.31211,-36.31295 -12.48559,-59.09773 -19.89414,-73.42427 -2.09489,-4.0511 -2.01237,-4.68359 2.40159,-18.40604 9.65036,-30.00175 14.09404,-60.18417 14.09404,-95.72985 0,-43.701054 -6.35141,-78.383831 -19.4897,-106.426311 -4.75238,-10.143545 -4.90993,-10.310825 -8.88828,-9.437033 -14.76854,3.243717 -44.92958,16.740188 -61.80334,27.655766 -25.65591,16.59671 -56.6419,43.648267 -71.7622,62.650218 -6.05201,7.60565 -7.24973,8.50138 -10.6921,7.99614 -3.46182,-0.50809 -4.96675,0.6492 -14.06476,10.81577 -12.8175,14.32293 -19.97967,25.17756 -31.74359,48.10897 -10.72354,20.90337 -14.4214,26.203 -20.60824,29.53484 -8.84654,4.76417 -15.44638,-0.92402 -15.44638,-13.31276 0,-19.1158 14.41085,-48.58353 37.65462,-76.99726 l 3.40982,-4.16825 -12.22571,-0.96762 -12.2257,-0.96763 -10.22985,10.77957 c -23.91095,25.19582 -41.21726,57.99409 -57.43418,108.84704 -9.26572,29.05539 -17.56296,39.59649 -27.13529,34.47353 -5.64871,-3.02311 -7.65019,-18.72267 -4.64836,-36.4618 5.96107,-35.2267 24.77036,-76.53778 47.57862,-104.49753 3.47043,-4.25427 6.11235,-7.90374 5.87093,-8.10993 -0.24143,-0.20617 -5.37519,0.78973 -11.40836,2.21313 -10.96841,2.58776 -10.97015,2.58886 -19.08486,12.01719 -10.89967,12.66413 -18.34015,24.42701 -29.14185,46.07132 -10.46605,20.9717 -13.14418,24.75594 -19.35722,27.35192 -3.99666,1.66991 -4.91776,1.65181 -7.66859,-0.15061 -6.43722,-4.21782 -5.71664,-18.95341 1.88715,-38.59177 2.27346,-5.87165 6.20598,-14.1173 8.73891,-18.32367 2.53295,-4.20637 4.11811,-7.45478 3.52258,-7.21871 -6.9963,2.77359 -33.99597,20.04543 -45.03429,28.80868 -25.80358,20.4853 -41.7681,39.09709 -56.75992,66.17192 -13.02842,23.52899 -19.64572,43.57473 -28.07775,85.05574 -4.53288,22.29934 -7.6237,31.18932 -14.59226,41.97104 -5.29473,8.192 -18.91888,22.85081 -26.59886,28.6189 l -4.54396,3.41276 4.40161,3.75819 c 4.75863,4.06302 19.83701,14.29488 26.44619,17.94581 3.08853,1.70611 4.08761,3.18534 4.08761,6.05211 0,3.09172 -1.04289,4.37034 -5.63343,6.90677 -11.46502,6.3348 -11.3446,5.57316 -2.05007,12.96663 10.88996,8.66256 48.65283,34.73311 64.68058,44.65388 26.60787,16.46959 60.96721,31.12872 92.65391,39.53003 13.58042,3.60067 14.99722,5.27425 11.12868,13.14567 -8.12174,16.52552 -21.3688,66.71228 -27.4773,104.09824 -6.53007,39.96625 -7.92539,56.17113 -7.90662,91.82569 0.0171,32.52229 0.15297,34.30147 3.59155,47.04445 4.15966,15.41517 10.28674,28.92749 19.01793,41.94112 4.87891,7.2719 6.45048,10.98446 7.30985,17.26827 0.60209,4.40262 2.89869,14.19744 5.10352,21.76626 5.72085,19.63861 21.02705,61.94212 22.81066,63.04444 3.72672,2.30324 26.03645,4.43146 45.42182,4.33297 19.36307,-0.0983 36.95432,-2.35869 51.0638,-6.56129 1.33795,-0.39851 2.79946,-4.38932 4.32935,-11.82178 1.27026,-6.17108 2.62744,-12.04852 3.01595,-13.06097 0.547,-1.42546 -1.47671,-2.02697 -8.96865,-2.66581 -14.48772,-1.23537 -39.65698,-6.7068 -55.98833,-12.17103 -21.62295,-7.23473 -23.86164,-8.47946 -24.3509,-13.53929 -0.63735,-6.59135 3.66755,-6.89007 17.85696,-1.2391 24.3226,9.68652 53.28661,15.24855 84.61955,16.24968 11.66452,0.37271 22.57344,0.95772 24.24205,1.30005 3.73433,0.76612 11.66563,12.75608 22.02787,33.30015 8.33504,16.52496 6.45816,15.17417 24.64505,17.73675 11.42749,1.61015 52.31579,0.35185 64.95016,-1.99877 z M 367.42762,786.96497 c -3.4807,-1.27501 -8.78095,-5.02392 -12.83612,-9.07911 -8.85155,-8.85155 -11.74027,-17.59942 -10.69062,-32.37429 1.46445,-20.61342 11.94691,-41.36315 42.21999,-83.5733 18.32919,-25.55662 29.67929,-44.09198 36.24341,-59.18751 5.16411,-11.87592 5.9159,-12.72176 10.81015,-12.16247 5.66373,0.64722 5.49056,5.24053 -0.7056,18.71586 l -5.29948,11.52522 3.58034,0.77268 c 8.98775,1.93968 22.61782,6.40743 28.24168,9.25726 17.40832,8.82145 36.34932,27.01349 46.88816,45.03409 2.74526,4.69419 5.42827,8.26489 5.96223,7.93489 2.53879,-1.56907 12.39782,-15.72557 16.68508,-23.95801 2.63482,-5.05938 5.40685,-9.94448 6.16007,-10.85577 2.15363,-2.60555 7.41149,-1.97024 9.05125,1.09365 1.21003,2.26097 0.66326,4.44339 -3.07187,12.261 -9.26274,19.38698 -28.24433,41.40342 -57.95416,67.22012 -35.22091,30.6056 -62.85425,49.65257 -80.85718,55.73285 -11.28957,3.8129 -26.51919,4.53965 -34.42733,1.64284 z m 26.56505,-11.84434 c 11.80545,-3.50465 22.92881,-9.69699 44.09871,-24.5496 2.44642,-1.71638 -7.7304,-19.03541 -16.80982,-28.60716 -13.00705,-13.71239 -26.62359,-22.06271 -40.19983,-24.65251 -3.88485,-0.74109 -4.50795,-0.32772 -8.20071,5.4403 -11.0378,17.24084 -17.41904,34.51556 -17.41904,47.15534 0,21.34811 16.08841,31.87602 38.53069,25.21363 z m 82.20163,-55.68944 c 6.50046,-5.55954 11.81903,-10.36485 11.81903,-10.67845 0,-1.49026 -8.24459,-16.93646 -11.79246,-22.0931 -10.54206,-15.32237 -33.28364,-31.20661 -51.36075,-35.87378 -13.56003,-3.50093 -14.0433,-3.33249 -21.5368,7.50724 -3.65385,5.28549 -6.82107,10.08403 -7.03827,10.66344 -0.2172,0.57941 3.57539,2.4408 8.42799,4.13643 11.83654,4.13601 23.46324,11.38463 33.97042,21.17871 8.44583,7.87263 19.22275,22.60769 22.73316,31.08256 0.95347,2.30187 2.00922,4.18521 2.34611,4.18521 0.33689,0 5.9311,-4.54871 12.43157,-10.10826 z M 300.96359,433.51278 c -5.18487,-1.92432 -11.66749,-6.1776 -14.35966,-9.42148 -1.47783,-1.78066 -2.33037,-1.47619 -6.95813,2.48498 -5.80533,4.96917 -15.9357,8.10255 -21.93546,6.78479 -9.89902,-2.1742 -18.16832,-12.22737 -17.31336,-21.04828 0.35854,-3.6992 0.88869,-4.21036 4.36682,-4.21036 3.36246,0 4.36569,0.85888 6.66043,5.70208 3.10704,6.55765 5.13444,8.16714 10.3235,8.19552 9.22174,0.0504 15.50895,-6.86336 15.50895,-17.05458 0,-6.33688 -0.29391,-6.84627 -8.49332,-14.71974 -18.75211,-18.00671 -14.40394,-24.42747 16.50914,-24.37838 13.69722,0.0217 17.55607,0.47758 21.87097,2.58357 9.94157,4.85219 7.06095,12.11033 -9.49519,23.92454 -7.83094,5.58804 -8.46197,6.41043 -8.46197,11.02802 0,6.98968 4.61909,13.15166 13.26453,17.6952 11.92171,6.26536 22.49129,3.52653 28.45903,-7.37438 3.13256,-5.72205 6.61392,-6.97112 9.99792,-3.58712 4.49136,4.49135 -0.15972,14.62419 -9.57171,20.85287 -4.60218,3.04566 -7.14954,3.69826 -15.54258,3.98188 -5.97485,0.20192 -11.9779,-0.38065 -14.82991,-1.43913 z m 110.84618,-40.88601 c -21.49874,-4.09972 -41.15524,-21.82084 -49.06253,-44.23187 -3.97307,-11.26057 -4.50237,-29.19618 -1.19402,-40.45954 8.53083,-29.0434 34.34083,-48.9532 63.46031,-48.9532 18.56639,0 33.34879,6.11371 46.44296,19.20787 13.3312,13.33121 19.21656,27.83671 19.41397,47.84909 0.42398,42.9831 -37.10218,74.58894 -79.06069,66.58765 z m 29.24308,-9.90802 c 33.69775,-11.28287 49.03959,-51.91511 31.91521,-84.52618 -10.49364,-19.98373 -33.32983,-32.97983 -53.78014,-30.60633 -10.28943,1.19422 -12.41376,2.76835 -5.19654,3.85064 28.65204,4.29664 46.77581,37.28093 38.8819,70.76298 -4.84222,20.53829 -18.86651,35.37838 -36.76045,38.8988 -10.54992,2.07557 -7.41392,3.76116 7.04559,3.78699 7.08726,0.0133 13.81983,-0.80261 17.89443,-2.1669 z m -250.16108,0.40735 c -16.63334,-6.17324 -26.36304,-16.90153 -32.78577,-36.15075 -10.76788,-32.27173 2.26478,-72.01805 27.43658,-83.67463 37.44685,-17.34091 72.96445,22.09296 65.355,72.56122 -1.81584,12.04309 -9.64981,28.8089 -16.97586,36.33067 -10.22782,10.50108 -30.39085,15.62431 -43.02995,10.93349 z m 20.72077,-7.00742 c 1.51697,-0.58213 -0.15258,-1.76773 -5.52502,-3.92356 -19.00566,-7.62646 -30.12492,-31.30906 -26.87017,-57.23 2.95312,-23.5188 15.59809,-40.65186 31.93042,-43.2635 6.44603,-1.03076 6.07518,-1.88814 -1.5586,-3.60335 -17.02988,-3.82636 -36.7151,13.45513 -42.46178,37.27686 -0.96728,4.00968 -1.69288,12.1616 -1.61243,18.11537 0.31758,23.50378 10.47276,42.9828 26.2461,50.34363 6.39554,2.98456 15.34372,4.01433 19.85148,2.28455 z m 364.54744,-190.9004 c -15.05131,-18.94199 -43.97838,-42.2861 -67.93257,-54.82151 -5.14905,-2.69453 -8.28446,-5.17721 -8.28446,-6.55979 0,-2.70217 15.7855,-22.76851 26.97856,-34.294848 21.21668,-21.848399 57.43971,-46.865487 64.57771,-44.599973 3.5633,1.130942 5.94464,6.262398 8.38186,18.061748 8.19577,39.678213 5.01392,84.515443 -8.7327,123.057623 -1.75706,4.92639 -3.91417,8.71957 -5.05104,8.88205 -1.09135,0.15598 -5.56317,-4.22041 -9.93736,-9.7253 z M 193.61266,761.96491 c 9.26151,-2.18314 22.4169,-8.66458 32.28989,-15.90871 l 6.30572,-4.6267 -2.05393,-4.95089 c -6.95871,-16.77359 -20.76966,-31.48845 -37.15468,-39.58637 -11.9818,-5.92172 -10.72805,-6.69205 -19.74866,12.13406 -7.21924,15.06665 -9.98848,24.34796 -9.98848,33.47717 0,9.90442 3.12717,15.93814 9.8408,18.98734 6.56682,2.98254 9.57297,3.05202 20.50934,0.4741 z m 56.85347,-75.50465 1.30019,-14.58064 -4.81787,-5.0998 c -6.53775,-6.9203 -18.49538,-14.93671 -27.31432,-18.31152 l -7.28172,-2.78656 -2.5776,3.15759 c -3.47706,4.25942 -11.21964,17.06421 -10.57614,17.49097 0.28351,0.18803 5.28663,2.7065 11.11805,5.59661 11.24121,5.57128 26.20188,18.44044 33.23413,28.588 4.71866,6.809 5.12927,5.97446 6.91528,-14.05465 z m 8.70799,-64.61878 c 1.2728,-6.74355 4.11019,-19.62973 6.30534,-28.63594 2.19514,-9.00622 3.73312,-16.633 3.41773,-16.9484 -0.84268,-0.84267 -36.70796,42.10832 -36.70796,43.96014 0,0.32821 4.02624,2.64318 8.94721,5.14437 4.92097,2.50119 10.14018,5.47213 11.59824,6.60208 1.45807,1.12994 2.98274,2.0734 3.38816,2.0966 0.40542,0.0232 1.7785,-5.4753 3.05128,-12.21885 z M 181.85215,196.35165 c 1.7501,-2.36936 5.50797,-6.83304 8.35083,-9.91928 l 5.16881,-5.61137 -2.28067,-11.62031 c -2.95788,-15.07085 -4.22465,-60.36351 -2.12877,-76.113074 2.90726,-21.846849 6.89321,-33.907351 11.59635,-35.087761 5.61329,-1.408848 11.43744,2.367792 25.69303,16.660525 13.68678,13.722418 26.64223,30.99551 33.61027,44.81149 1.93034,3.82742 3.68628,6.95894 3.90207,6.95894 0.2158,0 3.63551,-1.5736 7.59938,-3.49688 3.96386,-1.92328 14.50853,-6.29227 23.4326,-9.70888 l 16.22559,-6.21202 -12.24905,-11.941545 C 272.14128,67.158888 234.5479,42.408467 206.46301,32.980686 c -5.42702,-1.821799 -10.4977,-3.312352 -11.26816,-3.312352 -4.18909,0 -15.39445,33.799808 -19.23326,58.015084 -4.92351,31.057722 -5.21376,71.314822 -0.73808,102.372042 0.6829,4.73871 1.25346,9.0632 1.26789,9.60997 0.0577,2.18394 2.34367,0.77085 5.36075,-3.31378 z"
         id="path1" />
      <path
         id="path55"
         style="fill:#533268;fill-opacity:1;stroke-width:1.73349"
         d="M 606.30859,5.3925781 C 593.78751,6.0506022 562.91348,18.673139 539.91406,32.800781 519.66188,45.240916 502.95435,58.664747 479.72461,81.160156 L 457.57812,102.60742 443.27344,100.25 c -22.33824,-3.684044 -77.73151,-3.17463 -99.78516,0.91797 l -17.8789,3.31836 -13.32422,-13.039064 C 304.95625,84.275959 293.99831,74.360039 287.93555,69.412109 250.24983,38.656111 197.42084,12.902681 188.01953,20.705078 c -7.49009,6.21623 -16.97735,33.394519 -22.69336,65.009766 -4.45443,24.637376 -4.46968,82.204656 -0.0293,110.986326 l 3.21679,20.84375 -7.25586,14.42969 c -9.69784,19.28805 -17.72992,43.93809 -24.96679,76.62109 -8.18995,36.98739 -15.29569,49.78051 -37.984379,68.39453 -5.482178,4.49764 -9.966797,9.48877 -9.966797,11.0918 0,3.47517 7.493216,10.76844 21.558596,20.98047 l 10.29297,7.47266 -4.13086,2.73828 c -9.9551,6.60189 -10.96451,7.95445 -8.86524,11.87695 3.69757,6.909 45.35567,37.14915 81.6875,59.29883 22.25117,13.5654 47.48315,25.13951 72.61133,33.30469 21.98864,7.14502 22.58151,7.46745 21.59961,11.74218 -1.74525,7.59807 -6.97548,15.18204 -23.27734,33.7461 -8.6983,9.90535 -25.13913,29.9745 -36.53516,44.59961 -70.2019,90.0938 -87.63166,141.18977 -53.79492,157.70312 14.57389,7.11251 35.12813,1.51 62.14453,-16.93554 8.88818,-6.06841 16.44955,-11.03321 16.80273,-11.03321 0.35318,0 1.17866,5.26558 1.83399,11.70117 2.14526,21.06679 6.34108,34.91278 16.84375,55.58008 5.66263,11.14301 12.58739,28.06148 15.38867,37.5957 6.5409,22.26211 19.89581,61.66589 30.25391,89.26563 l 8.1289,21.66016 -4.02734,2.54297 c -7.3459,4.63612 -16.66335,15.37988 -18.70703,21.57226 -2.5787,7.81353 1.25769,16.75876 9.32422,21.74416 15.98054,9.8765 78.93344,8.3009 99.8164,-2.4981 3.22097,-1.6656 6.54317,-5.36474 8.04492,-8.95895 1.40693,-3.36728 5.22993,-23.79194 8.4961,-45.38867 3.2662,-21.59674 6.98094,-43.16845 8.2539,-47.93555 l 2.31446,-8.66601 h 11.98437 11.98633 l 15.69531,31.20312 c 8.63288,17.1616 16.76163,34.48955 18.0625,38.50781 2.34424,7.24108 2.31291,7.3645 -3.57422,13.88086 -8.70393,9.63409 -11.12779,16.47229 -8.70507,24.5586 2.49952,8.34259 6.64308,12.04429 18.02539,16.10159 7.86265,2.8028 13.00871,3.1536 37.70898,2.5625 33.84129,-0.8099 44.1967,-3.3217 53.96289,-13.0879 8.34903,-8.34904 12.08149,-21.01548 18.75586,-63.62893 6.96862,-44.49208 14.04964,-77.29105 25.11328,-116.33984 5.07494,-17.91185 10.20913,-36.98436 11.41016,-42.38281 l 2.18359,-9.81641 2.91602,-0.73047 -7.61913,-75.10941 -3.90235,0.1289 -46.20898,-91.19336 C 566.77764,556.28824 545.98242,514.503 545.98242,513.5898 c 0,-0.91322 11.50539,-6.58002 25.56836,-12.59179 48.50935,-20.73727 94.04297,-45.92992 94.04297,-52.03321 0,-1.80324 -3.11991,-5.95049 -6.93359,-9.21484 -3.81369,-3.26438 -6.93555,-6.72122 -6.93555,-7.68164 0,-0.96045 5.65605,-5.47455 12.56836,-10.03125 17.14214,-11.30042 27.30273,-19.71238 27.30273,-22.60742 0,-1.32965 -7.02508,-9.89459 -15.61132,-19.03125 -8.58626,-9.13663 -17.4577,-20.28132 -19.71485,-24.76758 -2.25717,-4.48628 -5.85702,-17.51793 -7.99805,-28.95898 -6.72022,-35.91092 -10.43269,-51.53846 -15.85937,-66.74024 -2.89293,-8.10409 -5.64877,-16.00626 -6.12305,-17.56055 -0.47428,-1.55431 1.46792,-10.13502 4.31446,-19.06836 9.18046,-28.81112 11.36946,-46.34837 11.44726,-91.65039 0.0541,-31.47772 -0.60894,-44.369865 -2.91992,-56.724606 C 635.187,53.843388 627.13077,29.267416 619.9375,16.375 614.93298,7.4054513 613.36696,5.8988246 608.55859,5.4238281 c -0.66384,-0.065579 -1.41526,-0.075118 -2.25,-0.03125 z m -1.58398,10.1171879 c 4.32432,0 5.46505,1.213442 9.36328,9.966796 12.9128,28.99523 16.82389,49.817299 17.99414,95.775388 1.11319,43.71705 -1.18931,65.01637 -10.72656,99.19727 l -6.04883,21.67969 4.29883,9.72461 c 5.33938,12.07332 11.16483,35.11527 18.21875,72.0625 2.98709,15.6458 6.66364,30.85682 8.16992,33.80273 4.00439,7.83159 11.86974,17.80326 23.56641,29.88281 6.43901,6.64977 9.83237,11.44892 9.02343,12.75782 -0.71322,1.154 -10.16824,7.86017 -21.01171,14.90039 -10.84348,7.0402 -19.71485,13.81129 -19.71485,15.04882 0,1.23753 3.47556,5.66191 7.72461,9.83203 4.24905,4.17015 7.35245,8.18878 6.89453,8.92969 -0.4579,0.74092 -9.97999,6.37483 -21.16015,12.51953 -41.95441,23.05842 -94.4001,44.38054 -141.24024,57.42188 -7.89417,2.19791 -9.96679,3.49751 -9.96679,6.24805 0,1.91013 1.25721,3.95485 2.79492,4.54492 1.53767,0.59006 13.04502,-1.79455 25.57031,-5.30078 12.52527,-3.50619 23.94291,-6.35132 25.37305,-6.32032 3.20311,0.0695 62.40625,115.6409 62.40625,121.82422 0,8.53217 -13.99783,26.25296 -43.49219,55.0586 -16.12296,15.74647 -29.31445,29.59277 -29.31445,30.76953 0,3.54112 15.37949,2.45052 27.93164,-1.98047 16.40674,-5.7917 29.58777,-15.00156 47.89062,-33.46289 8.80913,-8.88542 16.30613,-16.15625 16.66016,-16.15625 0.91823,0 13.25976,27.25915 13.25976,29.28711 0,0.92706 -6.41596,8.46369 -14.25781,16.74804 -14.11571,14.91228 -20.94766,19.86947 -75.91797,55.07227 -8.67265,5.55392 -15.46555,11.01474 -15.09375,12.13477 3.20316,9.64942 43.63397,1.78186 72.10742,-14.03125 6.07327,-3.37287 17.19454,-10.69308 24.71289,-16.26758 22.47882,-20.85365 17.65822,3.88838 14.50586,23.00586 -1.43568,7.99062 -7.10587,29.7403 -12.60156,48.33203 -11.70839,39.60914 -6.11381,34.19737 -51.11914,49.46289 -27.55691,9.34714 -39.21914,14.85985 -40.64648,19.21484 -0.34918,1.06543 2.32091,3.34445 5.93359,5.06641 8.67567,4.13524 32.74348,4.09555 52.10547,-0.0879 7.88298,-1.70323 14.7729,-2.65874 15.31055,-2.1211 0.53764,0.53766 -0.0621,6.2923 -1.33204,12.78711 l -2.30859,11.8086 -16.44727,3.90625 c -12.45699,2.95886 -23.59897,4.10544 -45.9375,4.72851 -29.60235,0.82568 -44.01079,-0.44703 -48.65429,-4.30078 -1.37254,-1.13912 -6.50922,-9.74588 -11.41406,-19.125 -4.90484,-9.37911 -10.95257,-19.40981 -13.43946,-22.29101 l -4.52148,-5.23829 -28.47266,-1.8164 c -32.3046,-2.06132 -46.88375,-4.68108 -73.10156,-13.13477 -22.01826,-7.09958 -24.54286,-7.31504 -23.79102,-2.02539 0.41906,2.94836 3.01898,4.87343 10.67969,7.90821 13.7423,5.44397 45.68028,13.55584 63.11524,16.03125 16.15544,2.29373 15.67134,1.53064 11.49609,18.15234 -2.64876,10.5448 -3.15545,11.26393 -9.10156,12.91211 -14.26422,3.9539 -36.48781,5.66464 -60.03321,4.62305 -34.83048,-1.54082 -32.39983,-0.36666 -39.52734,-19.05664 -8.3627,-21.92892 -19.59273,-57.61838 -21.08398,-67.00391 -0.69364,-4.36562 -5.32358,-15.05129 -10.51563,-24.26758 -5.10263,-9.0575 -11.46864,-22.70856 -14.14648,-30.33594 -4.85267,-13.82207 -4.86922,-14.01442 -4.82032,-58.07226 0.0411,-37.02413 0.68881,-48.42814 3.99024,-70.20703 5.57388,-36.76985 14.90181,-77.64404 23.83789,-104.46289 4.21295,-12.64386 7.66016,-23.73299 7.66016,-24.64258 0,-0.90961 -9.09281,-4.49199 -20.20508,-7.96094 -26.17391,-8.17076 -52.99258,-19.4468 -72.53711,-30.49609 -26.51537,-14.99017 -84.07422,-55.13891 -84.07422,-58.64454 0,-0.83467 3.25533,-3.71547 7.23437,-6.40039 3.97906,-2.68493 7.53485,-5.80001 7.90235,-6.92187 0.36748,-1.12188 -5.81872,-6.31134 -13.74805,-11.5332 -23.311219,-15.35164 -22.980741,-13.65589 -6.02344,-30.84375 16.41015,-16.63326 23.49067,-29.2465 28.10157,-50.0586 8.30399,-37.48156 15.00964,-61.4307 21.24804,-75.88867 19.03852,-44.12318 49.80351,-77.84645 97.10547,-106.44531 7.9249,-4.7914 14.76929,-8.35179 15.21094,-7.91016 0.44162,0.44164 -2.69266,8.13003 -6.9668,17.08399 -9.78706,20.5031 -13.27228,36.16301 -9.53125,42.82812 5.95989,10.61827 13.65491,4.9334 25.96094,-19.17969 10.98111,-21.51702 24.80383,-42.98194 33.91797,-52.66992 5.48398,-5.82928 8.60602,-7.55055 16.74804,-9.23242 5.5041,-1.13697 10.6714,-1.81246 11.48438,-1.50195 0.81297,0.3105 -3.85833,7.97374 -10.38086,17.03125 -30.31021,42.09029 -50.08047,103.21175 -40.66992,125.73437 4.26778,10.21421 13.42912,7.08911 20.49414,-6.99023 1.43528,-2.86028 6.7002,-16.89984 11.69922,-31.20117 16.30052,-46.63281 31.90065,-75.22688 53.83594,-98.67579 l 11.0625,-11.82617 12.07031,1.1211 c 6.63808,0.61695 12.37773,1.43239 12.75586,1.81054 0.37813,0.37813 -3.25223,5.82633 -8.06641,12.10742 -18.91481,24.67823 -31.31426,51.31014 -31.38476,67.40626 -0.048,10.96856 2.2615,15.05468 8.51171,15.05468 6.80024,0 12.83748,-7.30394 25.19336,-30.47851 5.55009,-10.40965 13.09541,-23.36293 16.76758,-28.78516 9.35925,-13.81958 25.53596,-30.87891 29.28125,-30.87891 1.72891,0 13.53997,-10.38659 26.24805,-23.082027 C 498.31356,76.806516 515.7317,61.205674 524.3125,54.833984 548.36951,36.970365 592.25525,15.509766 604.72461,15.509766 Z M 196.72656,29.708984 c 3.14545,-0.09246 7.84625,1.667812 16.04688,4.835938 16.79111,6.486859 36.47013,17.934968 57.21875,33.285156 18.86077,13.953509 44.41836,37.833992 42.46093,39.673832 -1.652,1.55276 -39.83183,17.22332 -44.69726,18.3457 -2.72342,0.62824 -4.39651,-0.98586 -7.80078,-7.52734 -10.72613,-20.610727 -42.77028,-56.229506 -52.86719,-58.763676 -6.46513,-1.622641 -8.58335,1.454219 -12.50781,18.166015 -3.82383,16.283257 -4.18646,69.932191 -0.61328,90.634771 l 2.29492,13.30468 -8.45703,9.64258 c -4.65139,5.30325 -9.33066,9.65216 -10.39844,9.66406 -2.71668,0.0306 -4.02814,-11.65215 -5.26758,-46.91211 -1.63546,-46.52618 3.72684,-84.586262 16.04102,-113.847652 3.03015,-7.200377 4.50273,-10.383073 8.54687,-10.501954 z M 269.0332,575.38477 c 0.0569,-0.002 0.10112,0.0121 0.13282,0.043 0.48941,0.47671 -1.92709,13.93253 -5.3711,29.90235 -3.44402,15.96982 -7.08176,28.98241 -8.08398,28.91601 -3.63055,-0.24044 -23.49219,-12.37731 -23.49219,-14.35547 0,-3.46503 33.95821,-44.39824 36.81445,-44.50585 z m -55.4082,70.04492 c 1.91727,0.12382 4.8026,1.45895 10.76562,4.39453 6.20604,3.05522 15.20156,9.21296 19.99024,13.68359 l 8.70703,8.12891 -1.83203,15.58008 c -1.00772,8.56913 -2.47172,16.21977 -3.25391,17.00195 -0.78218,0.78219 -4.75106,-2.55377 -8.82031,-7.41406 -7.71156,-9.2106 -24.00431,-21.76514 -35.07812,-27.0293 l -6.44727,-3.06445 4.53516,-8.33399 c 2.4946,-4.58342 5.97191,-9.63277 7.72656,-11.2207 1.31128,-1.18669 2.21582,-1.82287 3.70703,-1.72656 z m -30.47852,46.80469 c 5.37381,0.0601 20.7625,9.28129 30.13477,18.42382 9.16348,8.93891 18.9375,24.46556 18.9375,30.08008 0,2.92896 -12.41455,11.18429 -26.53711,17.64649 -12.2756,5.6171 -27.81969,7.20437 -34.32812,3.50585 -11.57903,-6.57992 -11.34134,-26.39963 0.61914,-51.64843 4.28701,-9.04998 8.71605,-17.0257 9.84375,-17.72266 0.32381,-0.20012 0.77416,-0.29137 1.33007,-0.28515 z m 227.56836,257.89648 c 1.59792,0.0266 1.78907,1.47449 1.78907,6.14453 0,8.48864 -2.97275,25.75181 -5.57422,32.37109 -2.74234,6.97769 -10.53453,9.69271 -33.20117,11.56832 -47.03341,3.892 -66.96875,0.1957 -66.96875,-12.41402 0,-4.45952 7.66967,-12.75595 16.66796,-18.0293 7.33281,-4.29733 7.88713,-5.10586 7.24805,-10.58007 l -0.6914,-5.92774 17.42382,1.08203 c 15.8798,0.98588 51.64364,-1.25441 61.19532,-3.83398 0.89055,-0.2405 1.57869,-0.38972 2.11132,-0.38086 z m 180.04493,6.67578 c 2.99395,-0.002 3.75976,1.60893 3.75976,5.28125 0,2.91042 -1.24643,10.77029 -2.76953,17.4668 -3.66522,16.11478 -9.32099,22.64011 -22.77148,26.27151 -21.69938,5.8585 -65.83005,4.869 -74.63282,-1.6739 -8.41361,-6.25366 -6.15353,-18.73077 4.80664,-26.53511 4.20709,-2.9957 5.22657,-4.97742 5.22657,-10.16016 v -6.43945 l 16.0332,1.34375 c 16.36754,1.37167 51.52616,-0.83462 62.23633,-3.90625 3.71634,-1.06583 6.31495,-1.64745 8.11133,-1.64844 z" />
      <path
         style="fill:#533268;fill-opacity:1;stroke-width:1.73349"
         d="m 194.94957,383.07948 c -14.1347,-3.32415 -25.01757,-13.12371 -32.79148,-29.52738 -5.00776,-10.56687 -5.34538,-12.53838 -5.34538,-31.21445 0,-18.77253 0.31894,-20.60837 5.46866,-31.47787 12.44557,-26.26888 35.18147,-36.9889 56.94974,-26.85193 15.59255,7.26108 27.00534,24.75091 30.6999,47.04687 4.97626,30.03077 -11.60608,64.31417 -33.8187,69.91894 -11.96905,3.02009 -15.69755,3.39109 -21.16274,2.10582 z m 17.2968,-6.94181 c 0.56828,-0.91947 -2.90332,-3.66657 -7.71466,-6.10465 -16.68701,-8.45595 -25.23978,-26.30736 -23.98668,-50.0652 1.25473,-23.78899 12.67065,-42.33818 28.70587,-46.64281 8.95473,-2.4039 9.36262,-4.19427 1.30013,-5.7068 -15.5959,-2.9258 -29.54429,5.75908 -39.00362,24.28539 -5.81035,11.3797 -6.06651,12.66085 -6.05018,30.25927 0.0153,16.48143 0.52226,19.47355 4.916,29.01505 5.74511,12.47616 13.64742,20.74431 23.01913,24.08485 7.88584,2.81089 17.34563,3.25081 18.81401,0.8749 z"
         id="path24" />
      <path
         style="fill:#533268;fill-opacity:1;stroke-width:1.73349"
         d="m 409.09313,390.73526 c -18.57486,-5.18684 -33.76808,-18.30421 -43.01975,-37.14199 -4.17115,-8.49308 -4.70837,-11.56903 -4.70837,-26.95833 0,-16.08577 0.41583,-18.21608 5.61873,-28.78468 6.76685,-13.74543 19.16562,-25.9184 33.00687,-32.40578 8.45521,-3.96297 12.21088,-4.64587 25.55013,-4.64587 14.18004,0 16.71838,0.53192 27.22797,5.70577 33.445,16.46492 46.50266,55.87321 29.82538,90.01357 -13.12948,26.87758 -45.61958,42.00289 -73.50096,34.21731 z m 38.54807,-9.9071 c 10.8927,-4.57846 24.19692,-19.17879 28.87878,-31.69218 4.84186,-12.94101 4.85424,-31.95509 0.0292,-44.85115 -7.43108,-19.86135 -27.3963,-35.3692 -47.62578,-36.99304 -17.48159,-1.40325 -27.94254,3.10886 -13.04349,5.62605 15.75652,2.66204 29.84798,17.67411 35.70001,38.03231 8.61357,29.96517 -9.17141,63.39853 -36.90997,69.38573 -13.08746,2.82485 -2.31157,6.20461 15.16807,4.75733 5.24382,-0.43418 13.25525,-2.35345 17.80318,-4.26505 z"
         id="path25" />
      <path
         style="fill:#533268;fill-opacity:1;stroke-width:1.73349"
         d="m 306.75995,433.21894 c -6.60065,-1.1438 -16.47153,-5.80569 -18.19408,-8.59282 -1.69408,-2.74109 -5.99911,-2.05702 -10.79483,1.7153 -2.42005,1.90361 -7.47742,4.28974 -11.23861,5.30251 -8.97852,2.41767 -17.95672,-1.96067 -22.67863,-11.05958 -6.10804,-11.76989 0.41867,-16.15817 7.57788,-5.09502 4.41127,6.81676 7.8429,8.37282 14.68029,6.65676 7.18478,-1.80327 11.17858,-7.72954 11.17858,-16.58755 0,-6.89917 -0.85098,-8.82292 -6.18158,-13.97445 -3.39988,-3.28565 -7.79345,-8.57314 -9.7635,-11.74996 -3.34422,-5.3928 -3.39004,-5.96791 -0.69047,-8.66748 4.32626,-4.32626 44.61061,-4.26194 48.95071,0.0782 4.32021,4.3202 1.16042,9.93691 -10.57458,18.79692 -10.86121,8.2003 -12.85092,12.75327 -8.9066,20.38074 4.12492,7.9767 12.3738,12.97343 22.85171,13.84235 9.62197,0.79792 10.98829,0.0174 20.30252,-11.59907 3.69439,-4.60754 7.06225,-4.02858 7.85138,1.34971 1.73912,11.85259 -16.85096,22.23932 -34.37019,19.20347 z"
         id="path26" />
      <path
         style="fill:#533268;fill-opacity:1;stroke-width:1.73349"
         d="m 372.15257,786.99626 c -8.52165,-1.67266 -18.30872,-9.71082 -23.28774,-19.1263 -7.21992,-13.65306 -4.65623,-33.60668 7.35263,-57.22676 5.68616,-11.18405 8.99843,-16.30473 41.07403,-63.49918 9.15551,-13.47095 19.87534,-31.25799 23.82185,-39.52674 7.18253,-15.04889 10.71607,-18.75705 14.38118,-15.09193 1.45299,1.45298 0.52888,5.37668 -3.59081,15.24648 -3.05102,7.30951 -5.34899,13.42822 -5.10661,13.59715 0.24237,0.16892 5.51116,1.68642 11.70839,3.37222 6.19724,1.6858 15.50485,5.12621 20.68358,7.64536 12.14558,5.9081 34.55216,27.01564 43.70943,41.17533 3.93965,6.09181 7.7689,11.07601 8.50946,11.07601 2.12799,0 10.92665,-11.9312 18.25388,-24.75271 7.33119,-12.82841 12.17926,-14.97206 11.74235,-5.19206 -0.79992,17.90548 -41.89888,62.69848 -92.49774,100.81158 -34.19073,25.75383 -57.42311,35.28591 -76.75388,31.49155 z m 26.48255,-12.72843 c 16.24421,-5.60696 39.87037,-21.20754 39.87037,-26.32678 0,-5.60986 -12.45091,-23.57095 -22.77326,-32.85163 -10.75077,-9.66588 -28.7213,-18.79935 -35.45315,-18.01896 -6.25501,0.72511 -12.67322,9.76822 -19.74146,27.81525 -9.53646,24.34902 -6.36477,42.77452 8.66266,50.32456 7.99254,4.01559 15.79439,3.7658 29.43484,-0.94244 z m 78.4941,-54.3483 c 6.40618,-5.38408 11.64759,-10.57461 11.64759,-11.5345 0,-4.84927 -13.96469,-25.80779 -23.06068,-34.61 -13.52251,-13.08574 -35.10758,-24.05882 -48.03553,-24.41955 l -9.11111,-0.2542 -6.90924,10.04795 c -3.80008,5.52637 -6.62036,10.27731 -6.26729,10.55767 0.35306,0.28035 7.42485,3.75612 15.71507,7.72395 18.36446,8.78951 31.95604,20.91242 43.81313,39.07883 4.73822,7.25948 9.05268,13.19907 9.58772,13.19907 0.53501,0 6.21417,-4.40516 12.62034,-9.78922 z"
         id="path27" />
      <path
         style="fill:#533268;fill-opacity:1;stroke-width:1.73349"
         d="M 575.45152,182.73482 C 561.51101,165.8672 530.03005,140.88976 506.17664,127.77114 l -5.48288,-3.01539 3.09231,-5.23487 c 13.08825,-22.156641 58.67974,-62.644318 81.08077,-72.004072 5.19548,-2.170808 6.04726,-2.097889 8.61311,0.737338 4.59656,5.079133 8.13221,25.240061 9.15374,52.196274 0.78452,20.70192 0.31868,28.80495 -2.6409,45.93759 -4.1277,23.89463 -10.74193,44.9074 -14.29951,45.42816 -1.34257,0.19652 -5.95137,-3.89008 -10.24176,-9.08135 z"
         id="path28" />
      <path
         style="fill:#f9a93d;fill-opacity:1;stroke-width:0.866747"
         d="m 503.07815,931.60715 c -8.96377,-1.48206 -9.98018,-1.80232 -12.53115,-3.94881 -1.57082,-1.32179 -5.22316,-7.30071 -9.14886,-14.97678 -6.91906,-13.52907 -15.33682,-27.13655 -18.52702,-29.94914 -1.63405,-1.4407 -3.86588,-1.79136 -15.0918,-2.37111 -45.13262,-2.33084 -66.09197,-5.83934 -92.1809,-15.43067 -17.80989,-6.54764 -22.83607,-6.70457 -22.83607,-0.713 0,5.59506 2.27569,7.15566 18.72583,12.84149 18.99708,6.56611 45.82395,12.70528 62.49557,14.30174 3.43628,0.32902 6.62351,1.05094 7.08271,1.60427 1.06963,1.28885 -3.75373,21.99848 -5.59824,24.03662 -1.36992,1.51378 -13.2679,4.27342 -26.3673,6.11569 -9.5978,1.34978 -43.86777,1.32898 -55.35223,-0.0337 -14.62279,-1.73497 -14.64975,-1.75127 -18.47165,-11.16475 -9.41155,-23.18106 -24.11854,-69.80527 -24.11854,-76.46084 0,-3.57132 -3.00762,-10.33906 -8.47689,-19.07479 -9.72497,-15.53302 -16.7495,-32.73154 -19.76731,-48.39739 -1.48132,-7.68971 -1.71518,-63.8625 -0.33436,-80.31453 4.02874,-48.00147 20.16935,-122.21372 32.87834,-151.17002 3.19813,-7.28662 3.38993,-10.81291 0.68402,-12.57514 -1.07261,-0.69855 -8.19076,-3.08852 -15.81814,-5.31107 -26.24307,-7.64702 -54.21288,-19.21879 -76.27374,-31.55625 -12.70331,-7.10429 -37.45908,-23.43135 -60.6723,-40.01492 -18.58515,-13.27727 -22.60289,-16.58497 -21.77407,-17.92603 0.33824,-0.54731 3.13537,-2.40456 6.21583,-4.12725 5.98247,-3.34559 8.19089,-5.69344 8.19089,-8.70798 0,-2.84382 -2.28616,-5.03383 -10.78641,-10.33276 -10.65084,-6.63955 -22.14997,-15.26395 -22.14997,-16.61255 0,-0.61406 4.14202,-5.11672 9.20448,-10.00596 12.06269,-11.64989 19.43137,-20.96606 24.16832,-30.55586 4.32081,-8.74735 6.3746,-15.98341 12.16268,-42.85242 6.5866,-30.5758 11.66467,-46.69592 20.3583,-64.62651 18.36598,-37.87978 42.66169,-65.09411 80.39457,-90.05227 12.46379,-8.24408 25.32756,-15.90431 25.32756,-15.08224 0,0.18389 -2.32928,4.92673 -5.17618,10.53965 -7.35046,14.49209 -11.41024,27.39756 -11.89826,37.82293 -0.32713,6.98872 -0.13189,8.69293 1.29133,11.26772 3.34047,6.04362 10.135,5.75274 16.53627,-0.70793 2.93723,-2.96449 6.24138,-8.37584 12.252,-20.06561 13.98032,-27.18971 22.2084,-39.93804 33.71808,-52.24194 4.02608,-4.30389 6.40495,-6.08368 9.44828,-7.06883 5.23668,-1.69517 15.92829,-4.11926 16.3423,-3.70525 0.17549,0.17548 -2.08482,3.40097 -5.02288,7.16773 -22.84461,29.28811 -41.38637,69.8214 -47.09601,102.95445 -1.7325,10.0537 -1.73595,25.71226 -0.007,31.53448 1.56159,5.25845 4.58414,8.00567 8.80797,8.00567 9.22388,0 14.06093,-8.05414 26.28728,-43.77072 16.87029,-49.28283 31.58783,-76.04396 56.0746,-101.96122 l 8.48663,-8.98241 6.06722,0.31363 c 3.33698,0.17249 8.53361,0.56252 11.54808,0.86674 l 5.48086,0.55313 -5.80884,7.36735 c -13.37142,16.95895 -25.57616,38.28406 -30.82401,53.85822 -4.87291,14.46145 -4.31999,29.36117 1.23395,33.2513 3.03361,2.12483 8.41589,1.62455 12.86277,-1.19559 4.95943,-3.14517 9.21882,-9.55359 20.23354,-30.44212 12.17839,-23.09537 19.34097,-33.7116 32.45518,-48.10446 6.55771,-7.19709 9.30803,-9.10085 13.14788,-9.10085 3.05249,0 3.71133,-0.57339 12.61613,-10.98026 15.71919,-18.370725 42.29257,-41.481782 65.30061,-56.79238 21.68866,-14.432637 62.04002,-32.158596 67.99974,-29.871635 1.90212,0.72991 8.15731,14.102851 12.4286,26.571029 8.67261,25.315929 12.32689,52.627843 12.29274,91.875176 -0.0289,33.21177 -4.15116,60.60622 -13.86602,92.14692 -1.89643,6.15706 -3.44425,12.41758 -3.4396,13.91226 0.005,1.49466 1.02118,4.86278 2.25894,7.48468 6.49547,13.75908 11.60351,33.00838 18.51519,69.77314 5.55891,29.56912 7.15354,35.93504 10.50883,41.95219 4.30381,7.71822 12.18137,16.35288 21.34804,25.79041 7.91521,8.1491 11.0354,12.14272 9.01556,10.17763 -0.34168,-0.33241 1.90751,1.53327 1.90751,2.70089 0,3.07458 -8.3398,7.88443 -23.16295,17.07963 -23.16012,14.36683 -23.27471,13.81628 -8.55812,27.0205 l 5.4057,4.85017 -3.23883,2.04438 c -36.722,23.17931 -105.86799,52.97652 -153.04099,65.95025 -14.33826,3.94337 -17.04663,5.41069 -17.04663,9.23546 0,0.89309 1.12097,2.87839 2.49105,4.41177 l 2.49108,2.78798 4.65959,-1.04742 c 2.56277,-0.57608 13.92584,-3.65029 25.25123,-6.83159 20.06472,-5.63615 20.62414,-5.74133 21.86209,-4.11044 1.96165,2.58435 51.86868,99.60177 56.54662,109.92455 3.7387,8.25019 3.69149,11.78575 -0.24466,18.32239 -9.09572,15.10492 -19.12788,26.22409 -49.28066,54.62032 -15.45773,14.55722 -19.57224,19.30647 -19.57224,22.59157 0,2.73086 2.39263,3.80082 8.49935,3.80082 22.24153,0 55.39591,-19.54958 76.5306,-45.12647 7.13051,-8.62925 7.26953,-8.74044 8.53856,-6.82918 1.54663,2.32934 8.85528,18.13906 10.47592,22.661 l 1.14987,3.20837 -6.9468,8.49272 c -14.24475,17.41471 -32.3615,31.16219 -72.86307,55.29049 -15.08408,8.98614 -23.54299,15.20084 -25.39162,18.65506 -3.38715,6.32894 11.33073,8.86987 29.77381,5.14022 25.24606,-5.10537 45.28301,-14.80706 72.60162,-35.15292 6.00953,-4.47569 11.17751,-8.13761 11.48439,-8.13761 1.59192,0 -0.60436,24.30858 -3.43467,38.01508 -0.72444,3.50836 -3.64587,14.23435 -6.49206,23.83555 -2.84618,9.60119 -6.95856,23.89232 -9.1386,31.75805 -4.23418,15.27718 -5.20121,17.73378 -7.96557,20.2355 -2.6534,2.40129 -16.0699,7.56098 -43.31923,16.65964 -13.49542,4.50616 -26.1716,9.01211 -28.16927,10.01321 -15.04268,7.53835 -9.21365,16.36322 11.92587,18.0552 14.06073,1.12539 30.07096,-0.40798 45.86471,-4.39284 3.74971,-0.94606 7.03082,-1.50693 7.29137,-1.24638 0.49457,0.49456 -2.23781,17.88219 -3.26574,20.78146 -1.0873,3.06682 -25.30123,8.58687 -43.77968,9.98043 -13.99095,1.05518 -46.49382,1.0563 -52.87157,10e-4 z M 397.76838,786.80653 c 16.94555,-4.1789 42.97177,-21.07816 77.73168,-50.47245 34.0166,-28.76573 54.20159,-51.33539 64.62362,-72.2584 6.09287,-12.23188 5.78812,-16.7079 -1.13755,-16.7079 -3.73175,0 -5.76106,2.08089 -9.72054,9.96759 -2.83073,5.6384 -12.3157,20.14048 -15.14412,23.15466 -1.21427,1.29401 -2.52585,2.15614 -2.91464,1.91586 -0.38878,-0.24029 -3.59965,-4.80935 -7.13526,-10.15346 -10.6213,-16.05425 -24.65703,-29.79345 -39.62918,-38.79197 -6.68396,-4.01718 -23.17741,-10.18155 -31.1936,-11.6585 -5.43198,-1.00083 -5.43731,-1.08006 -0.77638,-11.52544 5.10088,-11.43132 6.26273,-17.16872 3.83607,-18.94314 -2.12863,-1.55649 -6.89381,-1.4905 -8.50205,0.11771 -0.70878,0.70876 -4.17627,7.24188 -7.70556,14.51802 -7.96124,16.41327 -15.75876,29.01227 -34.58475,55.88106 -29.55457,42.1808 -38.96697,60.26085 -41.57525,79.86086 -1.79611,13.49701 0.25439,23.57121 6.54076,32.13495 3.18987,4.34549 12.05344,11.65892 16.08386,13.27098 6.36628,2.54635 20.17553,2.40895 31.20289,-0.31048 z M 330.23461,432.2458 c 7.04799,-4.14343 12.92871,-12.08289 12.92871,-17.45487 0,-3.13036 -3.16255,-6.64533 -5.97906,-6.64533 -2.52301,0 -4.22877,1.5448 -8.13504,7.36735 -6.64995,9.91217 -18.78607,10.89806 -30.4003,2.46959 -5.11485,-3.71185 -8.19191,-8.38932 -8.89543,-13.52201 -0.52243,-3.81161 -0.37435,-4.23547 2.4125,-6.9052 1.633,-1.56437 6.03261,-5.18452 9.7769,-8.04479 7.52209,-5.74612 10.95598,-10.14473 11.07074,-14.18097 0.0927,-3.25734 -1.186,-4.88477 -5.76232,-7.33437 -3.29168,-1.76195 -4.70098,-1.88683 -21.29329,-1.88683 -18.70957,0 -23.70054,0.73174 -26.91489,3.94608 -3.86759,3.8676 -1.69305,8.71495 8.79142,19.5972 4.20835,4.36801 7.90837,8.96514 8.22228,10.21587 1.02764,4.09443 -0.052,12.46399 -1.93574,15.00702 -3.16392,4.27111 -7.03295,6.27227 -12.12679,6.27227 -5.39965,0 -6.88872,-1.12259 -10.22671,-7.70978 -2.56837,-5.06844 -3.0869,-5.46478 -7.1495,-5.46478 -3.66416,0 -4.57309,1.15618 -4.56536,5.80721 0.0119,6.80646 5.54725,14.73386 12.81337,18.34863 7.16715,3.56554 19.246,1.06651 27.87393,-5.76694 3.89481,-3.08475 4.45413,-3.16127 6.50914,-0.89052 2.13714,2.36152 9.37032,6.92168 13.26641,8.36381 2.2486,0.83231 6.58731,1.1223 14.47846,0.9677 10.46883,-0.20509 11.5494,-0.38635 15.24057,-2.55634 z m 115.2418,-41.39645 c 31.81973,-10.64207 49.82585,-41.03188 44.97518,-75.90687 -1.1619,-8.35381 -4.172,-17.33698 -7.89751,-23.56888 -4.10113,-6.86025 -14.57756,-17.73011 -21.56631,-22.37622 -18.55006,-12.33206 -44.53065,-13.71613 -64.90153,-3.45752 -16.74214,8.43121 -29.06896,23.3214 -34.82188,42.06309 -2.57224,8.37979 -2.813,26.62909 -0.46884,35.53662 3.19277,12.13217 11.12962,25.48015 19.93706,33.52965 14.03517,12.82735 27.59775,17.8521 46.54214,17.2432 8.38089,-0.26937 11.33487,-0.76649 18.20169,-3.06307 z m -229.29153,-7.92669 c 7.98439,-2.457 15.78074,-7.47159 20.07771,-12.91392 7.23309,-9.1611 13.09006,-22.74901 15.05272,-34.9217 1.48721,-9.22379 0.63857,-25.93987 -1.74732,-34.41806 -7.11632,-25.28757 -25.06506,-41.60387 -45.76628,-41.60387 -22.52358,0 -40.13268,16.22596 -47.5019,43.77072 -2.07215,7.74528 -2.5876,26.16088 -0.97125,34.69938 1.67081,8.82617 5.79795,19.56814 10.02706,26.09811 6.52053,10.06804 19.66766,19.28271 30.07329,21.078 5.58343,0.96332 14.23605,0.21767 20.75597,-1.78866 z M 589.18196,191.67554 c 0.89717,-1.78767 2.84611,-6.95564 4.33098,-11.48441 11.53906,-35.19329 14.23368,-76.47015 7.41236,-113.54385 -2.40835,-13.089274 -5.19861,-20.289265 -8.4342,-21.763494 -3.04131,-1.385717 -8.78553,0.718734 -19.05884,6.982401 -24.70024,15.059795 -49.10926,37.215661 -66.41606,60.285303 -8.29175,11.05277 -8.47235,11.47292 -5.97677,13.90409 1.12129,1.09236 5.93907,4.21221 10.70619,6.933 24.16525,13.7921 46.46627,32.28515 66.59057,55.21996 3.50035,3.98921 6.56839,6.71729 7.55434,6.71729 1.05065,0 2.25914,-1.19338 3.29143,-3.25029 z"
         id="path31" />
      <path
         style="fill:#f9a93d;fill-opacity:1;stroke-width:0.866747"
         d="m 461.00511,723.40222 c -5.38684,-10.18396 -11.51642,-18.40832 -20.25206,-27.17316 -10.4131,-10.4479 -20.33017,-17.16329 -33.19912,-22.48096 -5.08082,-2.09949 -9.5675,-4.14691 -9.97042,-4.54983 -0.74055,-0.74053 9.55179,-16.14437 12.1251,-18.14682 1.91628,-1.49116 8.85194,-1.35746 15.23719,0.29376 15.19444,3.92925 35.98855,17.55208 46.92946,30.74484 4.56454,5.50402 15.16806,23.65115 15.16806,25.95899 0,1.11849 -11.62946,11.66307 -20.9099,18.95928 l -2.27484,1.78848 z"
         id="path32" />
      <path
         style="fill:#f9a93d;fill-opacity:1;stroke-width:0.866747"
         d="m 372.53068,775.31647 c -7.79329,-2.78493 -12.42072,-7.54784 -15.16873,-15.61285 -2.16434,-6.35198 -1.29026,-17.88013 2.12385,-28.01132 4.812,-14.27935 14.41114,-31.556 18.46618,-33.23565 4.52538,-1.87447 18.29337,3.66424 29.33164,11.7998 11.69836,8.62208 26.54748,26.5761 29.5802,35.76534 1.00058,3.03175 0.94096,3.18477 -2.34953,6.03119 -5.00414,4.3288 -20.47907,13.84165 -29.40775,18.07773 -12.56348,5.96055 -24.90838,7.92573 -32.57586,5.18576 z"
         id="path33" />
      <path
         style="fill:#f9a93d;fill-opacity:1;stroke-width:0.866747"
         d="m 252.58826,631.26179 c -0.95342,-0.72388 -5.73137,-3.46296 -10.61766,-6.08684 -4.88628,-2.62387 -8.88415,-4.9741 -8.88415,-5.22271 0,-0.72834 7.24696,-9.94097 17.19064,-21.85344 12.9295,-15.48946 18.61266,-21.66648 18.06739,-19.63741 -1.27374,4.73976 -11.85586,52.76656 -11.85586,53.80765 0,0.8139 -2.27586,0.22616 -3.90036,-1.00725 z"
         id="path34" />
      <path
         style="fill:#f9a93d;fill-opacity:1;stroke-width:0.866747"
         d="m 246.49425,703.02093 c -0.48478,-0.3381 -2.90546,-3.18725 -5.37928,-6.33145 -7.85916,-9.98894 -19.47901,-19.29284 -32.35662,-25.90761 -4.73456,-2.43198 -8.6083,-4.78085 -8.6083,-5.21972 0,-1.19072 7.33701,-12.99329 10.16268,-16.34805 l 2.46014,-2.92076 6.85959,2.85566 c 8.73975,3.63836 20.26692,11.37977 26.71174,17.93903 l 5.02366,5.11286 -1.39987,14.10562 c -1.48317,14.94499 -2.05635,17.7029 -3.47374,16.71442 z"
         id="path35" />
      <path
         style="fill:#f9a93d;fill-opacity:1;stroke-width:0.866747"
         d="m 177.60902,762.7465 c -4.0981,-1.33046 -7.5907,-3.50857 -9.76013,-6.08677 -5.04387,-5.99431 -5.28283,-18.53401 -0.60442,-31.7181 3.71148,-10.45921 12.24846,-28.21049 14.53772,-30.2288 1.81676,-1.60173 1.94235,-1.57965 8.36758,1.47168 16.7338,7.94684 29.24309,20.0766 37.34841,36.21524 2.12012,4.22143 3.85477,8.04826 3.85477,8.50406 0,1.0741 -14.42969,10.72391 -20.98125,14.03112 -11.48212,5.79616 -27.33098,9.57499 -32.76268,7.81157 z"
         id="path36" />
      <path
         style="fill:#f9a93d;fill-opacity:1;stroke-width:1.73349"
         d="m 176.14552,193.00491 c -2.47936,-16.09764 -3.27044,-71.50979 -1.27183,-89.0875 2.36511,-20.801049 8.55323,-47.110623 14.54798,-61.852552 3.9569,-9.730608 4.3112,-10.071039 10.01544,-9.623398 8.79721,0.690365 45.22347,19.433529 63.80717,32.832031 8.95943,6.459585 23.31434,18.404742 31.8998,26.544787 l 15.60993,14.800082 -22.36558,9.03116 c -12.30109,4.96714 -22.59976,8.33736 -22.88596,7.48939 -2.37062,-7.02383 -24.69831,-36.839501 -36.68368,-48.986188 -24.83436,-25.168646 -31.76618,-23.127334 -37.29832,10.983761 -3.66459,22.595877 -2.88784,66.008457 1.62321,90.720927 0.80787,4.4257 -0.31021,6.59296 -7.50488,14.54726 l -8.45418,9.34677 z"
         id="path50" />
      <path
         style="fill:#f9a93d;fill-opacity:1;stroke-width:1.73349"
         d="m 319.62016,998.40224 c -14.90666,-4.69685 -13.68889,-15.1365 2.96467,-25.41568 8.883,-5.48289 10.17764,-6.96717 10.17841,-11.66938 l 8.9e-4,-5.38747 29.90188,-0.27435 c 16.44603,-0.1509 33.80163,-1.06161 38.56799,-2.02379 4.76636,-0.96216 9.0147,-1.40081 9.44075,-0.97476 1.27217,1.27217 -3.42893,30.65195 -5.65484,35.34012 -3.54286,7.46193 -16.10653,10.27619 -50.18698,11.24189 -17.11711,0.48502 -32.15196,0.12778 -35.21277,-0.83658 z"
         id="path51" />
      <path
         style="fill:#f9a93d;fill-opacity:1;stroke-width:1.73349"
         d="m 509.77345,1007.0118 c -11.21476,-1.6294 -18.19151,-6.3591 -18.9614,-12.85429 -0.44732,-3.7737 1.08742,-6.35002 7.36735,-12.36723 5.98831,-5.73782 7.93236,-8.88221 7.93236,-12.83019 v -5.22965 l 29.03602,-0.0605 c 17.14814,-0.0357 34.68758,-1.06739 42.8399,-2.51986 7.59211,-1.35266 14.18229,-2.08097 14.64481,-1.61844 1.62506,1.62505 -3.36974,25.25001 -6.73155,31.83972 -4.56445,8.94714 -14.15106,13.37064 -33.85159,15.62014 -17.53598,2.0023 -28.59818,2.0076 -42.2759,0.02 z"
         id="path52" />
      <path
         style="fill:#ffffff;fill-opacity:1;stroke-width:0.462374"
         d="m 200.43903,376.1778 c -9.74057,-1.90126 -16.6044,-6.29356 -22.84411,-14.61837 -5.26125,-7.0194 -8.92767,-15.97511 -10.70738,-26.15423 -1.19252,-6.8207 -1.31543,-18.47347 -0.26774,-25.38358 2.86074,-18.86806 15.23754,-35.6122 30.12023,-40.7486 4.94563,-1.70686 10.45966,-1.78983 15.47111,-0.23279 3.89562,1.21035 3.77982,1.52342 -0.87575,2.36764 -13.63599,2.47267 -24.3022,13.57033 -29.55779,30.7534 -2.53433,8.28598 -3.05231,12.03175 -3.03708,21.96275 0.0124,8.05304 0.14174,9.55966 1.21104,14.1024 1.50648,6.40001 3.43652,11.42379 6.25855,16.29057 4.90323,8.45598 10.35109,13.4072 19.62661,17.83742 3.26175,1.55789 5.93046,2.97293 5.93046,3.14453 0,1.0941 -7.03954,1.51595 -11.32815,0.67886 z"
         id="path53" />
      <path
         style="fill:#ffffff;fill-opacity:1;stroke-width:0.462374"
         d="m 413.93274,384.27089 c -5.15719,-0.64312 -4.73943,-1.0776 3.00541,-3.12558 12.47695,-3.29932 21.01834,-9.36804 28.19307,-20.03139 3.5833,-5.32564 6.83853,-13.49117 8.53649,-21.41326 1.46597,-6.8397 1.45374,-19.74432 -0.0253,-26.65358 -4.7815,-22.33695 -19.70266,-38.41355 -38.6642,-41.6582 -6.29617,-1.07739 -6.18294,-1.80874 0.45939,-2.96706 8.24117,-1.43714 17.28552,-0.68195 24.83647,2.0738 8.6539,3.15828 16.34749,8.16856 22.82399,14.86359 6.39603,6.61187 10.62056,13.5873 13.58175,22.42584 4.93041,14.71631 3.6788,32.15776 -3.31263,46.16208 -3.63139,7.2739 -10.7266,15.81416 -17.00429,20.46743 -5.85651,4.34107 -13.60257,7.89498 -19.88207,9.12191 -4.43004,0.86558 -17.96203,1.30633 -22.5481,0.73442 z"
         id="path54" />
    </g>
  </g>
</svg>
